<?xml version="1.0" encoding="UTF-8" standalone="no"?>
<!DOCTYPE svg PUBLIC "-//W3C//DTD SVG 20010904//EN"
              "http://www.w3.org/TR/2001/REC-SVG-20010904/DTD/svg10.dtd">

<svg xmlns="http://www.w3.org/2000/svg"
     width="0.0766667in" height="0.126667in"
     viewBox="0 0 23 38">
  <path id="Selection"
        fill="white" stroke="white" stroke-width="1"
        d="M 20.00,0.00
           C 18.64,8.06 15.57,3.59 10.00,5.16
             4.91,6.60 0.82,10.68 0.13,16.00
             -0.84,23.50 1.50,29.69 9.00,32.50
             15.44,34.91 18.58,29.57 20.00,38.00
             20.00,38.00 23.00,38.00 23.00,38.00
             23.00,38.00 23.00,25.00 23.00,25.00
             17.49,26.60 16.03,29.35 13.00,29.18
             5.18,28.73 -1.88,14.95 11.00,9.37
             15.44,7.45 16.68,11.17 23.00,13.00
             23.00,13.00 23.00,0.00 23.00,0.00
             23.00,0.00 20.00,0.00 20.00,0.00 Z" />
</svg>
