<?xml version="1.0" encoding="UTF-8" standalone="no"?>
<!DOCTYPE svg PUBLIC "-//W3C//DTD SVG 20010904//EN"
              "http://www.w3.org/TR/2001/REC-SVG-20010904/DTD/svg10.dtd">

<svg xmlns="http://www.w3.org/2000/svg"
     width="0.12in" height="0.123333in"
     viewBox="0 0 36 37">
  <path
        fill="white" stroke="white" stroke-width="1"
        d="M 0.00,0.00
           C 0.00,0.00 0.00,37.00 0.00,37.00
             0.00,37.00 3.00,37.00 3.00,37.00
             3.00,37.00 3.00,20.00 3.00,20.00
             3.00,20.00 16.00,20.00 16.00,20.00
             16.00,20.00 16.00,37.00 16.00,37.00
             16.00,37.00 22.00,37.00 22.00,37.00
             22.00,37.00 22.00,27.00 22.00,27.00
             22.22,15.50 29.46,21.32 34.15,14.78
             35.17,13.35 35.58,11.71 35.81,10.00
             36.09,8.03 36.30,3.33 35.01,1.74
             32.82,-0.96 19.73,0.00 16.00,0.00
             16.00,0.00 16.00,17.00 16.00,17.00
             16.00,17.00 3.00,17.00 3.00,17.00
             3.00,17.00 3.00,0.00 3.00,0.00
             3.00,0.00 0.00,0.00 0.00,0.00 Z
           M 22.00,16.00
           C 22.00,16.00 22.00,3.00 22.00,3.00
             24.23,3.00 29.57,2.63 31.26,3.99
             32.22,4.77 32.57,5.88 32.76,7.05
             34.00,14.56 27.80,15.72 22.00,16.00 Z" />
</svg>
