<?xml version="1.0" encoding="UTF-8" standalone="no"?>
<!DOCTYPE svg PUBLIC "-//W3C//DTD SVG 20010904//EN"
              "http://www.w3.org/TR/2001/REC-SVG-20010904/DTD/svg10.dtd">

<svg xmlns="http://www.w3.org/2000/svg"
     width="0.116667in" height="0.133333in"
     viewBox="0 0 35 40">
  <path id="Selection"
        fill="white" stroke="white" stroke-width="1"
        d="M 0.00,0.00
           C 0.00,0.00 0.00,6.00 0.00,6.00
             2.11,4.83 4.51,3.25 7.00,3.29
             18.45,3.45 16.91,25.72 15.26,30.00
             14.00,33.29 10.72,36.66 7.00,36.71
             4.51,36.75 2.11,35.17 0.00,34.00
             0.00,34.00 0.00,40.00 0.00,40.00
             0.00,40.00 35.00,40.00 35.00,40.00
             35.00,40.00 35.00,34.00 35.00,34.00
             32.89,35.17 30.49,36.75 28.00,36.71
             16.55,36.55 18.09,14.28 19.74,10.00
             21.00,6.71 24.28,3.34 28.00,3.29
             30.49,3.25 32.89,4.83 35.00,6.00
             35.00,6.00 35.00,0.00 35.00,0.00
             35.00,0.00 0.00,0.00 0.00,0.00 Z" />
</svg>
